<?xml version="1.0" encoding="iso-8859-1"?>
<!-- Generator: Adobe Illustrator 18.0.0, SVG Export Plug-In . SVG Version: 6.00 Build 0)  -->
<!DOCTYPE svg PUBLIC "-//W3C//DTD SVG 1.1//EN" "http://www.w3.org/Graphics/SVG/1.1/DTD/svg11.dtd">
<svg version="1.1" id="Capa_1" xmlns="http://www.w3.org/2000/svg" xmlns:xlink="http://www.w3.org/1999/xlink" x="0px" y="0px"
	 viewBox="0 0 490.593 490.593" style="enable-background:new 0 0 490.593 490.593;" xml:space="preserve">
<g>
	<path d="M480.093,164.777h-22.995v-68.03c0-17.491-14.23-31.721-31.721-31.721H31.721C14.23,65.026,0,79.256,0,96.747v297.098
		c0,17.491,14.23,31.722,31.721,31.722h393.656c17.491,0,31.721-14.23,31.721-31.722v-68.03h22.995c5.799,0,10.5-4.701,10.5-10.5
		V175.277C490.593,169.478,485.892,164.777,480.093,164.777z M31.721,86.026h393.656c5.911,0,10.721,4.81,10.721,10.721v20.557H21
		V96.747C21,90.835,25.809,86.026,31.721,86.026z M425.377,404.567H31.721c-5.912,0-10.721-4.81-10.721-10.722v-20.557h415.098
		v20.557C436.098,399.757,431.288,404.567,425.377,404.567z M436.098,352.289H21V138.304h415.098v26.473h-75.321
		c-44.398,0-80.52,36.121-80.52,80.519c0,44.398,36.121,80.518,80.52,80.518h75.321V352.289z M469.593,304.815H360.776
		c-32.819,0-59.52-26.7-59.52-59.518c0-32.819,26.7-59.519,59.52-59.519h108.816V304.815z"/>
	<path d="M317.909,244.327c0,22.161,18.029,40.19,40.19,40.19c22.161,0,40.191-18.029,40.191-40.19
		c0-22.161-18.03-40.191-40.191-40.191C335.938,204.136,317.909,222.165,317.909,244.327z M377.29,244.327
		c0,10.581-8.609,19.19-19.191,19.19c-10.581,0-19.19-8.609-19.19-19.19c0-10.582,8.608-19.191,19.19-19.191
		C368.681,225.136,377.29,233.745,377.29,244.327z"/>
</g>
<g>
</g>
<g>
</g>
<g>
</g>
<g>
</g>
<g>
</g>
<g>
</g>
<g>
</g>
<g>
</g>
<g>
</g>
<g>
</g>
<g>
</g>
<g>
</g>
<g>
</g>
<g>
</g>
<g>
</g>
</svg>
