<?xml version="1.0" encoding="iso-8859-1"?>
<!-- Generator: Adobe Illustrator 19.0.0, SVG Export Plug-In . SVG Version: 6.00 Build 0)  -->
<svg version="1.1" id="Layer_1" xmlns="http://www.w3.org/2000/svg" xmlns:xlink="http://www.w3.org/1999/xlink" x="0px" y="0px"
	 viewBox="0 0 512 512" style="enable-background:new 0 0 512 512;" xml:space="preserve">
<g>
	<g>
		<path d="M256,0C114.84,0,0,114.84,0,256s114.84,256,256,256s256-114.84,256-256S397.16,0,256,0z M256,491.52
			C126.13,491.52,20.48,385.865,20.48,256S126.13,20.48,256,20.48S491.52,126.135,491.52,256S385.87,491.52,256,491.52z"/>
	</g>
</g>
<g>
	<g>
		<path d="M271.09,249.2c-1.878-0.271-3.57-0.549-6.13-0.826v-94.83c20.48,5.059,37.63,13.878,46.69,19.146
			c4.88,2.835,11.46,1.19,14.32-3.695c2.84-4.885,0.71-11.15-4.17-14c-4.327-2.52-28.68-16.331-56.84-22.642V102.23
			c0-5.655-4.58-10.24-10.24-10.24s-10.24,4.585-10.24,10.24v27.13c-10.24-0.649-24.035,1.083-34.4,7.04
			c-17.52,10.065-26.72,29.63-26.72,58.16c0,49.85,32.96,64.493,61.12,71.005v81.978c-20.48-4.57-42.11-13.176-57-19.132
			c-5.22-2.09-10.89,0.45-12.99,5.705c-2.1,5.255-0.02,11.21,5.23,13.315c17.618,7.045,41.72,16.515,64.76,21.059V409.6
			c0,5.655,4.58,10.24,10.24,10.24s10.24-4.585,10.24-10.24v-38.705c2.56,0.077,4.027,0.265,5.69,0.265
			c13.11,0,25.86-2.46,36.49-8.73c16.93-9.99,26.99-28.145,30.22-53.96C343.46,259.645,303.26,253.85,271.09,249.2z M244.48,244.5
			c-25.6-6.28-40.32-17.644-40.32-49.94c0-20.655,5.1-34.245,15.79-40.39c6.772-3.899,16.85-4.934,24.53-4.275V244.5z
			 M317.52,305.93c-2.43,19.46-9.77,32.17-21.11,38.86c-8.368,4.943-18.65,6.38-31.45,5.71v-81.41
			c2.56,0.124,2.357,0.254,3.19,0.375C306.14,274.96,320.82,279.525,317.52,305.93z"/>
	</g>
</g>
<g>
</g>
<g>
</g>
<g>
</g>
<g>
</g>
<g>
</g>
<g>
</g>
<g>
</g>
<g>
</g>
<g>
</g>
<g>
</g>
<g>
</g>
<g>
</g>
<g>
</g>
<g>
</g>
<g>
</g>
</svg>
