<?xml version="1.0" encoding="iso-8859-1"?>
<!-- Generator: Adobe Illustrator 19.0.0, SVG Export Plug-In . SVG Version: 6.00 Build 0)  -->
<svg version="1.1" id="Layer_1" xmlns="http://www.w3.org/2000/svg" xmlns:xlink="http://www.w3.org/1999/xlink" x="0px" y="0px"
	 viewBox="0 0 512 512" style="enable-background:new 0 0 512 512;" xml:space="preserve">
<g>
	<g>
		<g>
			<path d="M41.056,413.715c4.536,0,8.211-3.676,8.211-8.211v-16.376c0-4.536-3.675-8.211-8.211-8.211
				c-4.536,0-8.211,3.675-8.211,8.211v16.376C32.845,410.04,36.52,413.715,41.056,413.715z"/>
			<path d="M41.056,282.704c4.536,0,8.211-3.675,8.211-8.211v-16.376c0-4.536-3.675-8.211-8.211-8.211
				c-4.536,0-8.211,3.675-8.211,8.211v16.376C32.845,279.029,36.52,282.704,41.056,282.704z"/>
			<path d="M56.028,196.977H46.53c-5.765,0-11.102,3.868-12.977,9.407c-1.455,4.295,0.847,8.957,5.143,10.411
				c0.874,0.296,1.76,0.436,2.634,0.436c2.796,0,5.439-1.439,6.946-3.831h7.75c4.535,0,8.211-3.675,8.211-8.211
				C64.239,200.653,60.563,196.977,56.028,196.977z"/>
			<path d="M49.267,460.185v-5.55c0-4.536-3.675-8.211-8.211-8.211c-4.536,0-8.211,3.675-8.211,8.211v7.82
				c0,7.417,6.268,13.685,13.685,13.685h0.061c4.536,0,8.181-3.675,8.181-8.211C54.771,464.353,52.466,461.311,49.267,460.185z"/>
			<path d="M41.056,348.21c4.536,0,8.211-3.675,8.211-8.211v-16.376c0-4.536-3.675-8.211-8.211-8.211
				c-4.536,0-8.211,3.675-8.211,8.211v16.376C32.845,344.534,36.52,348.21,41.056,348.21z"/>
			<path d="M367.181,213.399h16.376c4.536,0,8.211-3.675,8.211-8.211c0-4.536-3.675-8.211-8.211-8.211h-16.376
				c-4.536,0-8.211,3.675-8.211,8.211C358.97,209.724,362.645,213.399,367.181,213.399z"/>
			<path d="M371.583,157.759c0.706,0,1.425-0.092,2.139-0.285l28.262-7.608c4.379-1.179,6.974-5.684,5.795-10.063
				c-1.18-4.38-5.691-6.974-10.063-5.795l-28.263,7.608c-4.379,1.179-6.974,5.684-5.795,10.063
				C364.646,155.345,367.962,157.759,371.583,157.759z"/>
			<path d="M301.675,213.399h16.376c4.535,0,8.211-3.675,8.211-8.211c0-4.536-3.676-8.211-8.211-8.211h-16.376
				c-4.536,0-8.211,3.675-8.211,8.211C293.464,209.724,297.139,213.399,301.675,213.399z"/>
			<path d="M112.097,459.719H95.721c-4.536,0-8.211,3.675-8.211,8.211c0,4.536,3.675,8.211,8.211,8.211h16.376
				c4.536,0,8.211-3.675,8.211-8.211C120.308,463.394,116.632,459.719,112.097,459.719z"/>
			<path d="M470.944,357.632c-4.536,0-8.211,3.675-8.211,8.211v16.376c0,4.536,3.675,8.211,8.211,8.211s8.211-3.675,8.211-8.211
				v-16.376C479.155,361.307,475.48,357.632,470.944,357.632z"/>
			<path d="M470.944,423.137c-4.536,0-8.211,3.675-8.211,8.211v16.376c0,4.536,3.675,8.211,8.211,8.211s8.211-3.675,8.211-8.211
				v-16.376C479.155,426.813,475.48,423.137,470.944,423.137z"/>
			<path d="M449.064,196.977h-16.376c-4.536,0-8.211,3.675-8.211,8.211c0,4.536,3.675,8.211,8.211,8.211h16.376
				c4.536,0,8.211-3.675,8.211-8.211C457.275,200.653,453.599,196.977,449.064,196.977z"/>
			<path d="M439.628,459.719H423.25c-4.536,0-8.211,3.675-8.211,8.211c0,4.536,3.675,8.211,8.211,8.211h16.378
				c4.535,0,8.211-3.675,8.211-8.211C447.839,463.394,444.162,459.719,439.628,459.719z"/>
			<path d="M485.854,168.845l-39.87-148.086c-1.664-6.175-5.636-11.336-11.189-14.533c-5.553-3.197-12.01-4.041-18.184-2.379
				L50.582,102.399c-6.176,1.663-11.336,5.636-14.533,11.188c-3.197,5.553-4.041,12.011-2.379,18.186l8.764,32.549
				C18.69,166.406,0,186.387,0,210.662v251.793c0,25.657,20.873,46.53,46.53,46.53h418.94c25.657,0,46.53-20.873,46.53-46.53
				V210.662C512,192.314,501.321,176.416,485.854,168.845z M50.281,121.782c1.008-1.752,2.631-3.003,4.572-3.525l366.03-98.552
				c1.936-0.522,3.969-0.253,5.719,0.753c1.752,1.008,3.003,2.632,3.525,4.572l37.466,139.156c-0.704-0.031-1.41-0.054-2.123-0.054
				h-8.221L423.262,37.899c-0.567-2.102-1.944-3.894-3.832-4.981c-1.889-1.087-4.131-1.379-6.232-0.812L67.721,125.123
				c-2.103,0.567-3.894,1.944-4.982,3.832c-1.086,1.887-1.378,4.129-0.812,6.232l7.794,28.945H59.389l-9.862-36.63
				C49.006,125.564,49.274,123.532,50.281,121.782z M285.362,143.29c-0.854-3.171-3.189-4.695-5.51-5.315
				c-5.229-1.315-10.759-1.639-16.692-0.949l-0.398-1.479c-0.826-3.068-3.913-4.84-6.976-4.016
				c-3.068,0.826-4.845,3.909-4.017,6.975l0.341,1.268c-12.034,4.609-18.72,13.756-17.092,24.359h-35.101
				c5.081-25.232,24.048-45.833,49.395-52.658c17.679-4.761,36.158-2.351,52.026,6.785c15.87,9.137,27.231,23.908,31.991,41.587
				c0.382,1.418,0.702,2.849,0.992,4.285h-64.427l-3.503-13.013c3.051-0.027,6.352,0.442,9.74,1.231
				c1.333,0.322,2.685,0.298,3.955-0.044C284.099,151.224,286.444,147.306,285.362,143.29z M259.235,164.132h-7.253
				c-0.612-0.749-1.008-1.635-1.286-2.667c-0.911-3.382,0.624-6.515,5.498-8.623L259.235,164.132z M309.532,104.028
				c-19.672-11.327-42.575-14.315-64.492-8.412c-32.496,8.749-56.531,35.769-61.81,68.515h-42.022
				c5.915-13.571,7.872-28.571,5.535-43.277l195.97-52.763c6.377,16.603,18.147,30.414,33.774,39.413
				c11.976,6.896,25.259,10.417,38.719,10.417c4.102,0,8.223-0.334,12.327-0.992l12.708,47.203h-89.217
				c-0.469-2.874-1.08-5.731-1.838-8.553C343.284,133.662,329.201,115.354,309.532,104.028z M358.688,63.79l50.85-13.692
				l13.692,50.853c-13.298,1.753-26.729-0.875-38.549-7.679C372.864,86.467,363.849,76.169,358.688,63.79z M122.825,164.132H86.729
				l-6.809-25.286l50.838-13.687C132.507,138.636,129.747,152.333,122.825,164.132z M495.578,462.456
				c0,16.601-13.507,30.108-30.108,30.108H46.53c-16.601,0-30.108-13.507-30.108-30.108V210.662
				c0-16.601,13.507-30.108,30.108-30.108h418.94c16.601,0,30.108,13.507,30.108,30.108V462.456z"/>
			<path d="M374.121,459.719h-16.376c-4.535,0-8.211,3.675-8.211,8.211c0,4.536,3.676,8.211,8.211,8.211h16.376
				c4.536,0,8.211-3.675,8.211-8.211C382.332,463.394,378.656,459.719,374.121,459.719z"/>
			<path d="M470.944,226.619c-4.536,0-8.211,3.675-8.211,8.211v16.376c0,4.536,3.675,8.211,8.211,8.211s8.211-3.675,8.211-8.211
				v-16.376C479.155,230.295,475.48,226.619,470.944,226.619z"/>
			<path d="M470.944,292.125c-4.536,0-8.211,3.675-8.211,8.211v16.376c0,4.536,3.675,8.211,8.211,8.211s8.211-3.675,8.211-8.211
				v-16.376C479.155,295.8,475.48,292.125,470.944,292.125z"/>
			<path d="M177.603,459.719h-16.376c-4.536,0-8.211,3.675-8.211,8.211c0,4.536,3.675,8.211,8.211,8.211h16.376
				c4.536,0,8.211-3.675,8.211-8.211C185.814,463.394,182.138,459.719,177.603,459.719z"/>
			<path d="M187.039,196.977h-16.376c-4.536,0-8.211,3.675-8.211,8.211c0,4.536,3.675,8.211,8.211,8.211h16.376
				c4.536,0,8.211-3.675,8.211-8.211C195.25,200.653,191.574,196.977,187.039,196.977z"/>
			<path d="M121.533,196.977h-16.376c-4.536,0-8.211,3.675-8.211,8.211c0,4.536,3.675,8.211,8.211,8.211h16.376
				c4.536,0,8.211-3.675,8.211-8.211C129.745,200.653,126.068,196.977,121.533,196.977z"/>
			<path d="M243.109,459.719h-16.376c-4.536,0-8.211,3.675-8.211,8.211c0,4.536,3.675,8.211,8.211,8.211h16.376
				c4.536,0,8.211-3.675,8.211-8.211C251.321,463.394,247.644,459.719,243.109,459.719z"/>
			<path d="M432.815,418.672v-44.888c0-4.536-3.675-8.211-8.211-8.211h-98.534c-4.536,0-8.211,3.675-8.211,8.211v44.888
				c0,4.536,3.675,8.211,8.211,8.211h98.534C429.139,426.883,432.815,423.206,432.815,418.672z M416.392,410.46H334.28v-28.465
				h82.112V410.46z"/>
			<path d="M252.546,196.977h-16.376c-4.536,0-8.211,3.675-8.211,8.211c0,4.536,3.675,8.211,8.211,8.211h16.376
				c4.536,0,8.211-3.675,8.211-8.211C260.757,200.653,257.081,196.977,252.546,196.977z"/>
			<path d="M308.615,459.719h-16.376c-4.536,0-8.211,3.675-8.211,8.211c0,4.536,3.675,8.211,8.211,8.211h16.376
				c4.536,0,8.211-3.675,8.211-8.211C316.826,463.394,313.15,459.719,308.615,459.719z"/>
		</g>
	</g>
</g>
<g>
</g>
<g>
</g>
<g>
</g>
<g>
</g>
<g>
</g>
<g>
</g>
<g>
</g>
<g>
</g>
<g>
</g>
<g>
</g>
<g>
</g>
<g>
</g>
<g>
</g>
<g>
</g>
<g>
</g>
</svg>
